<svg xmlns="http://www.w3.org/2000/svg" viewBox="0 0 64 64" role="img" aria-label="Scriptorium MCP">
  <defs>
    <linearGradient id="g" x1="0%" y1="0%" x2="100%" y2="100%">
      <stop offset="0%" stop-color="#ef9a5f"/>
      <stop offset="100%" stop-color="#4ec0c0"/>
    </linearGradient>
  </defs>
  <rect width="64" height="64" rx="18" fill="#07111e"/>
  <rect x="6" y="6" width="52" height="52" rx="14" fill="none" stroke="url(#g)" stroke-width="2.5"/>
  <path d="M42 18c-3-3-7-4-11-4-7 0-13 4-13 10 0 5 4 8 10 10l8 2c3 1 5 2 5 5 0 3-3 5-8 5-5 0-9-2-12-5l-4 5c4 4 10 6 16 6 9 0 15-4 15-11 0-5-3-8-10-10l-8-2c-4-1-5-2-5-5 0-3 3-5 7-5 4 0 7 1 10 4z" fill="#f7f2ea"/>
</svg>
